<svg id="Layer_1" data-name="Layer 1" xmlns="http://www.w3.org/2000/svg" xmlns:xlink="http://www.w3.org/1999/xlink" viewBox="0 0 1081 526"><defs><style>.cls-1{fill:none;}.cls-2{clip-path:url(#clip-path);}.cls-3{fill:#37fdff;}.cls-4{fill:#78fdff;}.cls-5{fill:#a7fdff;}.cls-6{fill:#d1fdff;}.cls-7{fill:#c8e6f0;}.cls-8{fill:#fff;}</style><clipPath id="clip-path"><rect class="cls-1" width="1081" height="526"/></clipPath></defs><g id="Layer_2" data-name="Layer 2"><g id="day"><g class="cls-2"><ellipse class="cls-3" cx="540.5" cy="360" rx="731.5" ry="677"/><ellipse class="cls-4" cx="363.5" cy="293.5" rx="653.5" ry="604.5"/><ellipse class="cls-5" cx="271.5" cy="267.5" rx="562.5" ry="520.5"/><ellipse class="cls-6" cx="238" cy="270" rx="360" ry="333"/><path class="cls-7" d="M1221.26,361.45c47.37-32,77.22-87.11,73.93-148.06-5-92.59-84.59-163.58-177.79-158.55a169.11,169.11,0,0,0-130.17,72.59c-11-7.05-23.24-10.73-36-10-14,.76-26.83,6.64-37.58,16.26C886.3,115.07,855,105.21,822.11,107c-83.28,4.49-148.93,82.21-160.91,182-47.69,12.51-83.86,58.94-91.9,116.76-14.34-43.87-50.9-74.2-92-72-51,2.75-89.61,54.5-86.32,115.59a134.62,134.62,0,0,0,1.45,13.72c-18.76-19.44-44-30.76-71.17-29.29-22.58,1.22-42.89,11.08-58.62,26.63a119.84,119.84,0,0,0-73.16-19.77c-36.39,2-68,19.61-88,45.64-12.69-12.55-28.48-19.7-45.29-18.8-38,2.06-66.68,44.66-64,95.17.15,2.76.41,5.48.74,8.17L-152.5,594.2-3.4,589C7.18,626.09,35,652.06,66.06,650.38c16.94-.91,32-9.88,43.28-24,22.67,23.51,55.86,37.5,92.07,35.54a119.8,119.8,0,0,0,70.32-27.28c17.36,13.93,38.74,21.65,61.46,20.42,43.14-2.33,78-36.19,88.4-81l217-7.62a103.18,103.18,0,0,0,112.49-4l551-19.36Z"/><path class="cls-8" d="M1080.5,193c-107.61,0-196.87,70.54-213.65,163a112.49,112.49,0,0,0-79.3,49.66,151.06,151.06,0,0,0-48-7.61,154.74,154.74,0,0,0-36.63,4.31,134,134,0,0,0-205.81,45.93A87,87,0,0,0,347,458.44,131.43,131.43,0,0,0,300,450c-36.92,0-69.12,14.39-86.14,35.73A49,49,0,0,0,201,484c-30.93,0-56,28.88-56,64.5S170.07,613,201,613c20.61,0,38.61-12.83,48.33-31.93a134.5,134.5,0,0,0,99.22.88,70.66,70.66,0,0,0,16.95,2,68.9,68.9,0,0,0,28.08-5.85,87.09,87.09,0,0,0,98.62-25.89A134,134,0,0,0,748.45,536.7a148.41,148.41,0,0,0,39.1-7.36,112.49,112.49,0,0,0,171.79,19.32c34.58,21,76.27,33.29,121.16,33.29,119.57,0,216.5-87.08,216.5-194.5S1200.07,193,1080.5,193Z"/></g></g></g></svg>