<?xml version="1.0" encoding="UTF-8"?>
<svg
id="koi_fish"
data-name="Koi Fish"
xmlns="http://www.w3.org/2000/svg"
viewBox="0 0 132.49 384.98">
  <defs>
    <style>
      .cls-1 {
        stroke-width: 0px;
      }
    </style>
  </defs>
  <g id="Layer_1-2" data-name="Layer 1">
    <path
    class="cls-1"
    d="M101.48,107.91c.39-6.95.64-13.75.73-20.35.35-2.46.37-4.7.03-6.68C102.04,34.56,92.95,0,66.24,0S30.45,34.56,30.25,80.89c-.34,1.98-.32,4.22.03,6.68.09,6.6.34,13.4.73,20.35C6.15,133.76-6.28,161.62,3.16,171.07c5.81,5.81,18.6,3.34,33.61-5.22,10.37,77.15,52.48,219.14,29.48,219.14s19.1-141.99,29.48-219.14c15,8.56,27.79,11.04,33.61,5.22,9.44-9.44-2.99-37.31-27.85-63.15Z"/>
  </g>
</svg>