<svg id="Layer_1" data-name="Layer 1" xmlns="http://www.w3.org/2000/svg" xmlns:xlink="http://www.w3.org/1999/xlink" viewBox="0 0 1081 526"><defs><style>.cls-1{fill:none;}.cls-2{clip-path:url(#clip-path);}.cls-3{fill:#141432;}.cls-4{fill:#1e1e46;}.cls-5{fill:#282846;}.cls-6{fill:#323241;}.cls-7{fill:#fff;}</style><clipPath id="clip-path"><rect class="cls-1" width="1081" height="526"/></clipPath></defs><g class="cls-2"><circle class="cls-3" cx="428" cy="90" r="805"/><circle class="cls-4" cx="846" cy="263" r="805"/><circle class="cls-5" cx="846" cy="263" r="679"/><circle class="cls-6" cx="846" cy="263" r="449"/><path class="cls-7" d="M104.74,147.48s-20.22,4.08-20.22,34c0-29.92-20.59-34-20.59-34s20.59-4.09,20.59-34C84.52,142.94,104.74,147.48,104.74,147.48Z"/><path class="cls-7" d="M539.66,114.93s-24,4.74-23.82,40.23c-.14-35.49-24.58-40.43-24.58-40.43s24.4-4.74,24.25-40.22C515.66,109.45,539.66,114.93,539.66,114.93Z"/><path class="cls-7" d="M189.3,372.67S177,375.15,177,393.32c0-18.17-12.51-20.65-12.51-20.65S177,370.19,177,352C177,369.91,189.3,372.67,189.3,372.67Z"/><path class="cls-7" d="M609.13,337.35S571.37,345.21,571,401c.37-55.79-38-63.15-38-63.15s38.45-7.87,38.81-63.66C571.47,329.14,609.13,337.35,609.13,337.35Z"/><path class="cls-7" d="M361.16,274.67S334,280.15,334,320.32c0-40.17-27.65-45.65-27.65-45.65S334,269.18,334,229C334,268.58,361.16,274.67,361.16,274.67Z"/><circle class="cls-7" cx="214" cy="80" r="5"/><circle class="cls-7" cx="85.5" cy="203.5" r="1.5"/><circle class="cls-7" cx="455" cy="211" r="7"/><circle class="cls-7" cx="307" cy="431" r="7"/><circle class="cls-7" cx="643.5" cy="476.5" r="6.5"/><circle class="cls-7" cx="654" cy="29" r="4"/><circle class="cls-7" cx="92.5" cy="34.5" r="5.5"/><circle class="cls-7" cx="38" cy="442" r="4"/><circle class="cls-7" cx="420.33" cy="144.67" r="1.5"/><circle class="cls-7" cx="430.33" cy="153.67" r="1.5"/><circle class="cls-7" cx="218.5" cy="235.5" r="1.5"/><circle class="cls-7" cx="356.5" cy="64.5" r="1.5"/><circle class="cls-7" cx="354.5" cy="63.83" r="2.17"/><circle class="cls-7" cx="473" cy="279" r="4"/><circle class="cls-7" cx="137" cy="186" r="4"/><circle class="cls-7" cx="98.5" cy="300.5" r="1.5"/><circle class="cls-7" cx="20.5" cy="393.5" r="1.5"/><circle class="cls-7" cx="42.5" cy="89.5" r="1.5"/></g></svg>