<?xml version="1.0" encoding="UTF-8"?>
<svg data-name="koi" viewBox="0 0 575.35 149.67">
  <defs>
    <style>
      .base {
        fill: rgba(0, 0, 0, 1);
      }
      .dark {
        fill: rgba(0, 0, 0, 1);
      }
      .alpha {
        fill: rgba(0, 0, 0, 1);
      }
      .head {
        fill: rgba(0, 0, 0, 1);
      }
      .splotch {
        fill: rgba(0, 0, 0, 1);
      }
      .spot {
        fill: rgba(0, 0, 0, 1);
      }
      .light {
        fill: rgba(0, 0, 0, 1);
      }
      .eye {
        fill: rgba(0, 0, 0, 1);
      }
    </style>
  </defs>
  <g id="koi">
    <path id="fins" class="alpha" d="M464.73,40.52c-3.26-6.95-8.02-13.99-14.15-20.41-18.51-19.4-42.32-25.88-53.19-14.5-8.03,8.42-6.74,24.24,1.95,39.75l-.44,58.46c-8.93,15.67-10.33,31.73-2.21,40.23,10.87,11.39,34.68,4.9,53.18-14.49,6.26-6.57,11.11-13.76,14.36-20.86l.5-68.19h0Z"/>
    <ellipse id="mouth" class="dark" cx="571.72" cy="74.58" rx="3.63" ry="10.14"/>
    <path id="tail" class="alpha" d="M23.71,74.58c0,7.09-26.36,12.48-23.49,16.39,13.11,17.85,249.1-16.39,249.1-16.39,0,0-235.16-33.99-248.71-16.89-3.13,3.95,23.11,9.49,23.11,16.89Z"/>
    <path id="body" class="base" d="M151.69,74.83c0,2.86,36.05,11.59,100.66,20.29,77.98,10.5,188.89,20.94,214.73,20.94,47.25,0,105.55-8.1,105.55-41.23s-58.3-41.23-105.55-41.23c-25.84,0-136.75,10.45-214.73,20.94-64.61,8.7-100.66,17.43-100.66,20.29Z"/>
    <ellipse id="head-spot" class="head" cx="501.32" cy="74.51" rx="36.58" ry="24.54"/>
    <path id="splotch3" class="splotch" d="M252.35,54.54c-64.61,8.7-100.66,17.43-100.66,20.29,0,2.02,18,6.97,51.33,12.76,2.68-.9,5.32-1.81,7.92-2.7,8.58-2.96,17.37-6.28,26.42-5.63,4.48.32,8.87,1.61,13.36,1.63,4.49.02,9.4-1.61,11.56-5.55.43-.79.75-1.69.65-2.59-.38-3.49,6.77-7.79,13.27-8.07s13.52-2.4,17-7.89c1.47-2.31,2.15-4.96,2.51-7.7-15.04,1.78-29.7,3.61-43.35,5.45Z"/>
    <path id="splotch2" class="splotch" d="M463.13,33.66c.15,1.8-12.33,13.13-.42,21.99,5.84,4.35,16.41,1.12,22.96,9.67,2.83,3.69-2.63,12.94-6.56,15.45-7.24,4.63-5.96,9.41-8.37,17.66-.26.88-.48,1.85-.13,2.71.52,1.29,2.07,1.76,3.42,2.08,8.13,1.91,17.61,3.55,24.08-1.73,1.66-1.35,2.99-3.09,4.75-4.3,2.19-1.51,4.86-2.11,7.45-2.68,12.55-2.75,25.1-5.51,37.66-8.26,3.99-.88,8.18-1.85,11.23-4.57,3.05-2.72,4.43-7.79,1.82-10.94-.99-1.2-2.4-1.96-3.81-2.64-10.28-4.95-21.65-6.55-32.56-9.54-4.63-1.27-10.58-2.4-14.08-5.82-3.17-3.09-5.46-7.7-8.8-11.01-2.27-2.25-4.34-4.69-6.45-7.1-9.49-.73-19.08-1.04-28.25-1.04-1.15,0-2.47.02-3.95.06Z"/>
    <path id="splotch1" class="splotch" d="M306.71,101.85c8.01.92,16.07,1.82,24.11,2.7,3.48-3.72,23.82-19.32,27.1-19.26,7.19.15,15.64.99,19.35,7.15,1.18,1.95,1.7,4.22,2.2,6.44.82,3.63,1.65,7.26,2.47,10.89,10.86,1.04,21.22,1.98,30.8,2.8.08-.06.16-.12.23-.19-1.34-8.86,65.76-16.27,22.24-54.36-17.4-15.23-21.05-17.56-23.16-19.98-.24-.27-.44-.56-.64-.86-24.58,2.12-54.12,5.01-83.92,8.28-20.15,14.17-35.73,12.56-20.78,56.39Z"/>
    <path id="spot2" class="spot" d="M265.34,57.16c2.36,1.83,5.36,2.58,8.27,3.28,24.1,5.81,48.67,11.14,73.44,10,8.7-.4,18.5-2.29,23.17-9.64,2.3-3.63,2.95-8.06,3.22-12.35.17-2.57.2-5.19-.16-7.73-35.9,3.52-76.17,7.98-111.15,12.53.77,1.49,1.81,2.83,3.21,3.91Z"/>
    <path id="spot1" class="spot" d="M550.88,102.82c-2.07-2.39-5.09-4.18-8.01-5.55-21.83-10.19-46.92-9.8-71.01-9.22-9.64.23-19.28.47-28.91.7-4.09.1-8.24.21-12.15,1.44-3.71,1.17-7.2,3.46-9.07,6.87s-1.78,8.01.81,10.91c2,2.24,5.05,3.17,7.92,4.06,1.94.6,3.94,1.3,5.6,2.42,14.05,1.03,24.91,1.61,31.01,1.61,29.16,0,62.52-3.09,83.8-13.24Z"/>
    <ellipse id="dorsal" class="light" cx="364.01" cy="74.83" rx="157.85" ry="2.61"/>
    <ellipse id="leye" class="eye" cx="551.37" cy="46.82" rx="4.19" ry="10.73" transform="translate(301.03 540.3) rotate(-67.96)"/>
    <ellipse id="reye" class="eye" cx="551.37" cy="101.92" rx="10.73" ry="4.19" transform="translate(3.91 223.12) rotate(-22.96)"/>
  </g>
</svg>